PathFileType	3	(X/Y/Z)	dance_move_1__view2_aligned.trc
DataRate	CameraRate	NumFrames	NumMarkers	Units	OrigDataRate	OrigDataStartFrame	OrigNumFrames
100.0	100.0	18	19	mm	100.0	133	890
Frame#	Time	pelvis			neck			head			hip_left			hip_right			knee_left			knee_right			ankle_left			ankle_right			heel_left			heel_right			toe_left			toe_right			shoulder_left			shoulder_right			elbow_left			elbow_right			wrist_left			wrist_right			
		X1	Y1	Z1	X2	Y2	Z2	X3	Y3	Z3	X4	Y4	Z4	X5	Y5	Z5	X6	Y6	Z6	X7	Y7	Z7	X8	Y8	Z8	X9	Y9	Z9	X10	Y10	Z10	X11	Y11	Z11	X12	Y12	Z12	X13	Y13	Z13	X14	Y14	Z14	X15	Y15	Z15	X16	Y16	Z16	X17	Y17	Z17	X18	Y18	Z18	X19	Y19	Z19	
133	1.32000	69.381293	879.703776	47.600162	90.147029	1374.259199	-230.982686	88.446209	1411.994990	-400.479411	-8.433669	875.356225	54.337047	147.196734	884.051317	40.863342	-140.212064	504.419752	-112.152717	261.698716	501.660796	-116.217042	-150.910302	125.931882	34.667844	317.215994	114.952527	-4.795578	-145.967414	84.238058	76.759765	316.535663	69.783625	33.625125	-164.457016	45.702849	-140.017838	352.630936	50.484079	-185.535357	-92.513319	1364.203664	-179.370229	260.701508	1302.877120	-183.584370	-186.802070	1075.955216	-138.737698	343.708485	1015.060675	-126.489452	-236.220911	794.721925	-187.354717	359.241973	745.306496	-222.980553
134	1.33000	68.417547	876.679975	50.331541	88.535647	1368.826746	-231.901279	86.762523	1405.039226	-401.725592	-9.381567	872.331668	57.171482	146.217140	881.028278	43.491664	-143.383320	504.074014	-113.239308	261.368298	500.959966	-117.341803	-152.977193	126.247799	34.524445	316.806499	115.123191	-4.585872	-147.900821	84.559304	76.630853	316.170344	70.023909	33.902416	-166.575562	46.597115	-140.210366	352.287524	50.933296	-185.261554	-94.116089	1358.935498	-180.192817	259.099618	1298.099632	-184.646905	-187.233504	1070.287791	-141.104657	342.057129	1010.111104	-128.773596	-234.364382	789.075410	-190.044807	357.034698	740.184599	-224.701912
135	1.34000	67.453801	873.656174	53.062919	86.924265	1363.394293	-232.819871	85.078837	1398.083463	-402.971772	-10.329465	869.307112	60.005918	145.237547	878.005239	46.119987	-146.554576	503.728276	-114.325898	261.037880	500.259137	-118.466563	-155.044085	126.563716	34.381046	316.397004	115.293856	-4.376165	-149.834229	84.880551	76.501941	315.805024	70.264193	34.179707	-168.694108	47.491380	-140.402895	351.944112	51.382513	-184.987751	-95.718860	1353.667333	-181.015405	257.497727	1293.322144	-185.709440	-187.664937	1064.620365	-143.471616	340.405773	1005.161533	-131.057740	-232.507853	783.428895	-192.734897	354.827422	735.062702	-226.423272
136	1.35000	66.490055	870.632373	55.794298	85.312883	1357.961840	-233.738463	83.395151	1391.127699	-404.217952	-11.277363	866.282555	62.840353	144.257953	874.982200	48.748309	-149.725833	503.382538	-115.412488	260.707462	499.558307	-119.591324	-157.110976	126.879634	34.237647	315.987509	115.464521	-4.166458	-151.767637	85.201797	76.373029	315.439705	70.504477	34.456999	-170.812654	48.385646	-140.595424	351.600700	51.831730	-184.713948	-97.321630	1348.399168	-181.837993	255.895836	1288.544656	-186.771976	-188.096371	1058.952940	-145.838574	338.754417	1000.211961	-133.341884	-230.651324	777.782380	-195.424987	352.620146	729.940805	-228.144631
137	1.36000	65.526309	867.608572	58.525676	83.701501	1352.529387	-234.657055	81.711465	1384.171936	-405.464133	-12.225261	863.257998	65.674789	143.278359	871.959161	51.376631	-152.897089	503.036800	-116.499078	260.377045	498.857478	-120.716085	-159.177868	127.195551	34.094248	315.578015	115.635186	-3.956752	-153.701045	85.523044	76.244116	315.074385	70.744760	34.734290	-172.931201	49.279911	-140.787952	351.257288	52.280947	-184.440145	-98.924400	1343.131003	-182.660581	254.293946	1283.767167	-187.834511	-188.527804	1053.285515	-148.205533	337.103061	995.262390	-135.626028	-228.794796	772.135865	-198.115078	350.412871	724.818908	-229.865990
138	1.37000	64.562563	864.584771	61.257055	82.090119	1347.096934	-235.575647	80.027779	1377.216172	-406.710313	-13.173159	860.233442	68.509224	142.298766	868.936122	54.004953	-156.068346	502.691062	-117.585668	260.046627	498.156648	-121.840845	-161.244759	127.511468	33.950849	315.168520	115.805851	-3.747045	-155.634452	85.844290	76.115204	314.709066	70.985044	35.011581	-175.049747	50.174177	-140.980481	350.913877	52.730164	-184.166342	-100.527170	1337.862837	-183.483169	252.692055	1278.989679	-188.897046	-188.959238	1047.618090	-150.572492	335.451705	990.312819	-137.910173	-226.938267	766.489351	-200.805168	348.205595	719.697011	-231.587349
139	1.38000	63.598817	861.560971	63.988433	80.478737	1341.664480	-236.494239	78.344093	1370.260409	-407.956493	-14.121057	857.208885	71.343659	141.319172	865.913083	56.633276	-159.239602	502.345323	-118.672259	259.716209	497.455819	-122.965606	-163.311651	127.827385	33.807450	314.759025	115.976516	-3.537338	-157.567860	86.165537	75.986292	314.343746	71.225328	35.288872	-177.168293	51.068442	-141.173010	350.570465	53.179381	-183.892539	-102.129940	1332.594672	-184.305757	251.090164	1274.212191	-189.959581	-189.390671	1041.950664	-152.939450	333.800349	985.363247	-140.194317	-225.081738	760.842836	-203.495258	345.998319	714.575114	-233.308708
140	1.39000	62.635072	858.537170	66.719812	78.867356	1336.232027	-237.412831	76.660407	1363.304645	-409.202674	-15.068955	854.184328	74.178095	140.339578	862.890044	59.261598	-162.410859	501.999585	-119.758849	259.385791	496.754990	-124.090366	-165.378542	128.143302	33.664051	314.349530	116.147180	-3.327632	-159.501268	86.486784	75.857380	313.978426	71.465611	35.566163	-179.286839	51.962708	-141.365538	350.227053	53.628598	-183.618736	-103.732711	1327.326507	-185.128345	249.488274	1269.434703	-191.022117	-189.822104	1036.283239	-155.306409	332.148993	980.413676	-142.478461	-223.225209	755.196321	-206.185348	343.791044	709.453217	-235.030067
141	1.40000	61.671326	855.513369	69.451191	77.255974	1330.799574	-238.331424	74.976721	1356.348882	-410.448854	-16.016853	851.159772	77.012530	139.359985	859.867005	61.889920	-165.582115	501.653847	-120.845439	259.055373	496.054160	-125.215127	-167.445434	128.459219	33.520652	313.940035	116.317845	-3.117925	-161.434676	86.808030	75.728468	313.613107	71.705895	35.843454	-181.405385	52.856973	-141.558067	349.883641	54.077815	-183.344933	-105.335481	1322.058341	-185.950933	247.886383	1264.657214	-192.084652	-190.253538	1030.615814	-157.673368	330.497637	975.464105	-144.762605	-221.368681	749.549806	-208.875439	341.583768	704.331320	-236.751426
142	1.41000	60.707580	852.489568	72.182569	75.644592	1325.367121	-239.250016	73.293035	1349.393118	-411.695034	-16.964751	848.135215	79.846966	138.380391	856.843966	64.518242	-168.753371	501.308109	-121.932029	258.724955	495.353331	-126.339888	-169.512326	128.775136	33.377253	313.530540	116.488510	-2.908218	-163.368083	87.129277	75.599556	313.247787	71.946179	36.120745	-183.523931	53.751239	-141.750596	349.540229	54.527032	-183.071130	-106.938251	1316.790176	-186.773521	246.284492	1259.879726	-193.147187	-190.684971	1024.948388	-160.040326	328.846281	970.514533	-147.046750	-219.512152	743.903291	-211.565529	339.376493	699.209423	-238.472785
143	1.42000	60.647745	849.574452	74.398463	74.423215	1320.685152	-239.314300	71.983406	1343.855879	-411.786949	-16.964512	845.163738	81.990312	138.260481	853.985205	66.806686	-167.925871	500.503369	-123.027203	258.573331	494.692369	-127.487628	-168.528732	128.649618	33.339877	312.490963	116.422657	-2.662553	-162.479133	87.051174	75.602907	312.139321	71.965831	36.467287	-182.210306	53.932402	-141.727765	348.579500	54.381178	-182.626885	-108.011150	1311.336038	-187.234128	245.190064	1256.528067	-193.468710	-189.607405	1019.318869	-162.086480	327.234839	967.468881	-149.883385	-215.874630	739.576270	-214.415791	335.681331	697.367745	-240.955430
144	1.43000	60.587909	846.659336	76.614357	73.201839	1316.003183	-239.378585	70.673777	1338.318640	-411.878864	-16.964272	842.192261	84.133658	138.140570	851.126445	69.095130	-167.098371	499.698630	-124.122376	258.421707	494.031407	-128.635369	-167.545139	128.524100	33.302501	311.451385	116.356804	-2.416887	-161.590184	86.973071	75.606259	311.030854	71.985484	36.813829	-180.896680	54.113564	-141.704934	347.618772	54.235324	-182.182639	-109.084048	1305.881900	-187.694736	244.095636	1253.176407	-193.790232	-188.529839	1013.689349	-164.132634	325.623396	964.423228	-152.720020	-212.237109	735.249248	-217.266054	331.986170	695.526068	-243.438075
145	1.44000	60.528074	843.744220	78.830251	71.980462	1311.321215	-239.442869	69.364147	1332.781401	-411.970778	-16.964033	839.220783	86.277004	138.020660	848.267685	71.383573	-166.270871	498.893890	-125.217549	258.270084	493.370445	-129.783109	-166.561546	128.398582	33.265125	310.411808	116.290952	-2.171222	-160.701234	86.894968	75.609611	309.922388	72.005137	37.160371	-179.583054	54.294727	-141.682103	346.658043	54.089471	-181.738394	-110.156947	1300.427761	-188.155344	243.001207	1249.824748	-194.111754	-187.452273	1008.059830	-166.178788	324.011953	961.377576	-155.556656	-208.599587	730.922227	-220.116317	328.291009	693.684390	-245.920720
146	1.45000	60.468239	840.829105	81.046145	70.759085	1306.639246	-239.507154	68.054518	1327.244162	-412.062693	-16.963793	836.249306	88.420350	137.900749	845.408924	73.672017	-165.443371	498.089150	-126.312723	258.118460	492.709483	-130.930849	-165.577953	128.273064	33.227749	309.372230	116.225099	-1.925556	-159.812284	86.816865	75.612963	308.813921	72.024789	37.506912	-178.269428	54.475890	-141.659273	345.697314	53.943617	-181.294149	-111.229845	1294.973623	-188.615951	241.906779	1246.473088	-194.433276	-186.374706	1002.430310	-168.224942	322.400510	958.331923	-158.393291	-204.962066	726.595206	-222.966579	324.595848	691.842712	-248.403366
147	1.46000	60.408403	837.913989	83.262039	69.537709	1301.957277	-239.571439	66.744889	1321.706923	-412.154608	-16.963554	833.277829	90.563696	137.780839	842.550164	75.960461	-164.615871	497.284411	-127.407896	257.966836	492.048521	-132.078590	-164.594360	128.147545	33.190373	308.332653	116.159246	-1.679891	-158.923334	86.738762	75.616315	307.705455	72.044442	37.853454	-176.955802	54.657053	-141.636442	344.736586	53.797763	-180.849903	-112.302744	1289.519485	-189.076559	240.812350	1243.121429	-194.754799	-185.297140	996.800791	-170.271096	320.789067	955.286271	-161.229926	-201.324544	722.268184	-225.816842	320.900686	690.001034	-250.886011
148	1.47000	60.348568	834.998873	85.477933	68.316332	1297.275308	-239.635723	65.435259	1316.169684	-412.246522	-16.963315	830.306352	92.707042	137.660928	839.691403	78.248905	-163.788370	496.479671	-128.503069	257.815213	491.387559	-133.226330	-163.610767	128.022027	33.152997	307.293076	116.093393	-1.434225	-158.034384	86.660659	75.619666	306.596988	72.064095	38.199996	-175.642176	54.838215	-141.613611	343.775857	53.651910	-180.405658	-113.375643	1284.065346	-189.537167	239.717922	1239.769769	-195.076321	-184.219574	991.171271	-172.317250	319.177624	952.240618	-164.066562	-197.687023	717.941163	-228.667104	317.205525	688.159356	-253.368656
149	1.48000	60.288733	832.083757	87.693827	67.094955	1292.593339	-239.700008	64.125630	1310.632445	-412.338437	-16.963075	827.334874	94.850388	137.541018	836.832643	80.537348	-162.960870	495.674931	-129.598242	257.663589	490.726597	-134.374071	-162.627173	127.896509	33.115621	306.253498	116.027540	-1.188560	-157.145435	86.582556	75.623018	305.488522	72.083747	38.546537	-174.328550	55.019378	-141.590780	342.815128	53.506056	-179.961413	-114.448541	1278.611208	-189.997774	238.623493	1236.418110	-195.397843	-183.142008	985.541752	-174.363404	317.566181	949.194966	-166.903197	-194.049501	713.614141	-231.517367	313.510364	686.317679	-255.851301
150	1.49000	60.228897	829.168641	89.909721	65.873579	1287.911370	-239.764293	62.816001	1305.095206	-412.430352	-16.962836	824.363397	96.993734	137.421108	833.973883	82.825792	-162.133370	494.870192	-130.693416	257.511966	490.065635	-135.521811	-161.643580	127.770991	33.078245	305.213921	115.961688	-0.942894	-156.256485	86.504453	75.626370	304.380056	72.103400	38.893079	-173.014924	55.200541	-141.567950	341.854399	53.360203	-179.517167	-115.521440	1273.157070	-190.458382	237.529065	1233.066451	-195.719366	-182.064442	979.912232	-176.409558	315.954739	946.149313	-169.739833	-190.411980	709.287120	-234.367629	309.815203	684.476001	-258.333946
